<?xml version="1.0" encoding="UTF-8" standalone="no"?>
<!DOCTYPE svg PUBLIC "-//W3C//DTD SVG 1.1//EN" "http://www.w3.org/Graphics/SVG/1.1/DTD/svg11.dtd">
<svg width="100%" height="100%" viewBox="0 0 192 192" version="1.1" xmlns="http://www.w3.org/2000/svg" xmlns:xlink="http://www.w3.org/1999/xlink" xml:space="preserve" xmlns:serif="http://www.serif.com/" style="fill-rule:evenodd;clip-rule:evenodd;stroke-linejoin:round;stroke-miterlimit:2;">
    <g id="surface1">
        <g>
            <path d="M31.125,26.203L36.41,26.203C40.895,26.863 45.199,28.184 48.977,30.746C52.867,33.273 55.23,36.684 58.539,39.832C68.906,49.629 82.621,55.703 97.016,55.305C112.656,54.93 127.117,47.078 137.262,35.379C141.824,30.16 148.051,27.211 154.84,26.203L160.758,26.203C174.012,27.996 184.082,38.402 185.289,51.758L185.289,56.609C184.953,58.602 184.555,60.57 184.145,62.547C182.59,66.543 180.551,70.18 177.668,73.352C165.445,87.168 149.805,97.996 132.535,104.48C108.988,113.219 82.41,113.168 58.863,104.457C41.367,97.91 25.543,86.781 13.285,72.691C10.426,69.457 8.512,65.746 7.156,61.664C6.844,59.934 6.531,58.23 6.258,56.5L6.258,51.609C7.566,38.215 17.773,27.758 31.125,26.203Z" style="fill:rgb(254,233,0);fill-rule:nonzero;"/>
        </g>
        <path d="M43.969,61.43C46.402,60.879 47.672,62.598 49.523,63.805C62.094,73.391 77.461,79.129 93.301,79.613C110.805,80.258 128.148,74.422 142.023,63.805C143.824,62.672 145.129,60.918 147.457,61.516C149.816,62.273 150.711,65.039 149.234,67.043C145.539,70.363 141.238,73.078 136.973,75.605L135.633,72.605C131.27,74.535 126.902,76.465 122.578,78.469C123.051,79.551 123.523,80.645 123.996,81.727C114.125,85.227 103.73,87.004 93.238,86.645C74.926,86.148 57.207,79.188 43.012,67.688C40.609,65.957 41.23,62.398 43.969,61.43Z" style="fill:rgb(32,32,32);fill-rule:nonzero;"/>
        <g>
            <path d="M7.156,61.664C8.512,65.746 10.426,69.457 13.285,72.691C25.543,86.781 41.367,97.91 58.863,104.457C58.824,116.543 58.984,128.652 58.773,140.75C58.352,153.621 48.07,164.336 35.313,165.605L30.578,165.605C17.871,164.25 7.652,153.582 7.242,140.75C7.105,114.402 7.266,88 7.156,61.664Z" style="fill:rgb(3,251,202);fill-rule:nonzero;"/>
        </g>
        <path d="M184.145,62.547C184.07,67.391 184.145,72.23 184.117,77.063C170.258,92.992 152.566,105.551 132.523,112.383C132.523,109.746 132.523,107.121 132.535,104.48C149.805,97.996 165.445,87.168 177.668,73.352C180.551,70.18 182.59,66.543 184.145,62.547Z" style="fill:rgb(223,0,125);fill-rule:nonzero;"/>
        <path d="M135.633,72.605L136.973,75.605C138.367,79.289 141.129,83.285 141.141,87.23C140.68,92.879 133.703,95.77 129.367,92.098C126.754,89.395 125.711,85.039 123.996,81.727C123.523,80.645 123.051,79.551 122.578,78.469C126.902,76.465 131.27,74.535 135.633,72.605Z" style="fill:rgb(254,0,143);fill-rule:nonzero;"/>
        <g>
            <path d="M184.117,77.063C184.082,98.281 184.191,119.543 184.082,140.738C183.684,153.57 173.402,164.313 160.695,165.605L155.672,165.605C143.539,164.164 133.605,154.266 132.637,141.996C132.363,132.137 132.609,122.242 132.523,112.383C152.566,105.551 170.258,92.992 184.117,77.063Z" style="fill:rgb(254,0,143);fill-rule:nonzero;"/>
        </g>
    </g>
</svg>
