<?xml version="1.0" encoding="UTF-8"?>
<svg xmlns="http://www.w3.org/2000/svg" xmlns:xlink="http://www.w3.org/1999/xlink" width="192pt" height="191.999996pt" viewBox="0 0 192 191.999996" version="1.2">
<defs>
<clipPath id="clip1">
  <path d="M 6.257812 26.203125 L 32 26.203125 L 32 52 L 6.257812 52 Z M 6.257812 26.203125 "/>
</clipPath>
<clipPath id="clip2">
  <path d="M 6.257812 26.203125 L 185.289062 26.203125 L 185.289062 112 L 6.257812 112 Z M 6.257812 26.203125 "/>
</clipPath>
<clipPath id="clip3">
  <path d="M 36 26.203125 L 155 26.203125 L 155 56 L 36 56 Z M 36 26.203125 "/>
</clipPath>
<clipPath id="clip4">
  <path d="M 160 26.203125 L 185.289062 26.203125 L 185.289062 52 L 160 52 Z M 160 26.203125 "/>
</clipPath>
<clipPath id="clip5">
  <path d="M 6.257812 56 L 31 56 L 31 165.609375 L 6.257812 165.609375 Z M 6.257812 56 "/>
</clipPath>
<clipPath id="clip6">
  <path d="M 160 56 L 185.289062 56 L 185.289062 165.609375 L 160 165.609375 Z M 160 56 "/>
</clipPath>
<clipPath id="clip7">
  <path d="M 7 61 L 59 61 L 59 165.609375 L 7 165.609375 Z M 7 61 "/>
</clipPath>
<clipPath id="clip8">
  <path d="M 132 77 L 185 77 L 185 165.609375 L 132 165.609375 Z M 132 77 "/>
</clipPath>
<clipPath id="clip9">
  <path d="M 35 104 L 156 104 L 156 165.609375 L 35 165.609375 Z M 35 104 "/>
</clipPath>
</defs>
<g id="surface1">
<rect x="0" y="0" width="192" height="191.999996" style="fill:rgb(100%,100%,100%);fill-opacity:1;stroke:none;"/>
<rect x="0" y="0" width="192" height="191.999996" style="fill:rgb(100%,100%,100%);fill-opacity:1;stroke:none;"/>
<rect x="0" y="0" width="192" height="191.999996" style="fill:rgb(100%,100%,100%);fill-opacity:1;stroke:none;"/>
<g clip-path="url(#clip1)" clip-rule="nonzero">
<path style=" stroke:none;fill-rule:nonzero;fill:rgb(100%,100%,100%);fill-opacity:1;" d="M 6.257812 26.203125 L 31.125 26.203125 C 17.773438 27.757812 7.566406 38.214844 6.257812 51.609375 Z M 6.257812 26.203125 "/>
</g>
<g clip-path="url(#clip2)" clip-rule="nonzero">
<path style=" stroke:none;fill-rule:nonzero;fill:rgb(100%,91.758728%,0%);fill-opacity:1;" d="M 31.125 26.203125 L 36.410156 26.203125 C 40.894531 26.863281 45.199219 28.183594 48.976562 30.746094 C 52.867188 33.273438 55.230469 36.683594 58.539062 39.832031 C 68.90625 49.628906 82.621094 55.703125 97.015625 55.304688 C 112.65625 54.929688 127.117188 47.078125 137.261719 35.378906 C 141.824219 30.160156 148.050781 27.210938 154.839844 26.203125 L 160.757812 26.203125 C 174.011719 27.996094 184.082031 38.402344 185.289062 51.757812 L 185.289062 56.609375 C 184.953125 58.601562 184.554688 60.570312 184.144531 62.546875 C 182.589844 66.542969 180.550781 70.179688 177.667969 73.351562 C 165.445312 87.167969 149.804688 97.996094 132.535156 104.480469 C 108.988281 113.21875 82.410156 113.167969 58.863281 104.457031 C 41.367188 97.910156 25.542969 86.78125 13.285156 72.691406 C 10.425781 69.457031 8.511719 65.746094 7.15625 61.664062 C 6.84375 59.933594 6.53125 58.230469 6.257812 56.5 L 6.257812 51.609375 C 7.566406 38.214844 17.773438 27.757812 31.125 26.203125 Z M 31.125 26.203125 "/>
</g>
<g clip-path="url(#clip3)" clip-rule="nonzero">
<path style=" stroke:none;fill-rule:nonzero;fill:rgb(100%,100%,100%);fill-opacity:1;" d="M 36.410156 26.203125 L 154.839844 26.203125 C 148.050781 27.210938 141.824219 30.160156 137.261719 35.378906 C 127.117188 47.078125 112.65625 54.929688 97.015625 55.304688 C 82.621094 55.703125 68.90625 49.628906 58.539062 39.832031 C 55.230469 36.683594 52.867188 33.273438 48.976562 30.746094 C 45.199219 28.183594 40.894531 26.863281 36.410156 26.203125 Z M 36.410156 26.203125 "/>
</g>
<g clip-path="url(#clip4)" clip-rule="nonzero">
<path style=" stroke:none;fill-rule:nonzero;fill:rgb(100%,100%,100%);fill-opacity:1;" d="M 160.757812 26.203125 L 185.289062 26.203125 L 185.289062 51.757812 C 184.082031 38.402344 174.011719 27.996094 160.757812 26.203125 Z M 160.757812 26.203125 "/>
</g>
<g clip-path="url(#clip5)" clip-rule="nonzero">
<path style=" stroke:none;fill-rule:nonzero;fill:rgb(100%,100%,100%);fill-opacity:1;" d="M 6.257812 56.5 C 6.53125 58.230469 6.84375 59.933594 7.15625 61.664062 C 7.265625 88 7.105469 114.402344 7.242188 140.75 C 7.652344 153.582031 17.871094 164.25 30.578125 165.605469 L 6.257812 165.605469 Z M 6.257812 56.5 "/>
</g>
<g clip-path="url(#clip6)" clip-rule="nonzero">
<path style=" stroke:none;fill-rule:nonzero;fill:rgb(100%,100%,100%);fill-opacity:1;" d="M 185.289062 56.609375 L 185.289062 165.605469 L 160.695312 165.605469 C 173.402344 164.3125 183.683594 153.570312 184.082031 140.738281 C 184.191406 119.542969 184.082031 98.28125 184.117188 77.0625 C 184.144531 72.230469 184.070312 67.390625 184.144531 62.546875 C 184.554688 60.570312 184.953125 58.601562 185.289062 56.609375 Z M 185.289062 56.609375 "/>
</g>
<path style=" stroke:none;fill-rule:nonzero;fill:rgb(12.939453%,12.939453%,12.939453%);fill-opacity:1;" d="M 43.96875 61.429688 C 46.402344 60.878906 47.671875 62.597656 49.523438 63.804688 C 62.09375 73.390625 77.460938 79.128906 93.300781 79.613281 C 110.804688 80.257812 128.148438 74.421875 142.023438 63.804688 C 143.824219 62.671875 145.128906 60.917969 147.457031 61.515625 C 149.816406 62.273438 150.710938 65.039062 149.234375 67.042969 C 145.539062 70.363281 141.238281 73.078125 136.972656 75.605469 L 135.632812 72.605469 C 131.269531 74.535156 126.902344 76.464844 122.578125 78.46875 C 123.050781 79.550781 123.523438 80.644531 123.996094 81.726562 C 114.125 85.226562 103.730469 87.003906 93.238281 86.644531 C 74.925781 86.148438 57.207031 79.1875 43.011719 67.6875 C 40.609375 65.957031 41.230469 62.398438 43.96875 61.429688 Z M 43.96875 61.429688 "/>
<g clip-path="url(#clip7)" clip-rule="nonzero">
<path style=" stroke:none;fill-rule:nonzero;fill:rgb(1.568604%,98.81897%,79.219055%);fill-opacity:1;" d="M 7.15625 61.664062 C 8.511719 65.746094 10.425781 69.457031 13.285156 72.691406 C 25.542969 86.78125 41.367188 97.910156 58.863281 104.457031 C 58.824219 116.542969 58.984375 128.652344 58.773438 140.75 C 58.351562 153.621094 48.070312 164.335938 35.3125 165.605469 L 30.578125 165.605469 C 17.871094 164.25 7.652344 153.582031 7.242188 140.75 C 7.105469 114.402344 7.265625 88 7.15625 61.664062 Z M 7.15625 61.664062 "/>
</g>
<path style=" stroke:none;fill-rule:nonzero;fill:rgb(87.838745%,0%,49.409485%);fill-opacity:1;" d="M 184.144531 62.546875 C 184.070312 67.390625 184.144531 72.230469 184.117188 77.0625 C 170.257812 92.992188 152.566406 105.550781 132.523438 112.382812 C 132.523438 109.746094 132.523438 107.121094 132.535156 104.480469 C 149.804688 97.996094 165.445312 87.167969 177.667969 73.351562 C 180.550781 70.179688 182.589844 66.542969 184.144531 62.546875 Z M 184.144531 62.546875 "/>
<path style=" stroke:none;fill-rule:nonzero;fill:rgb(100%,0%,56.469727%);fill-opacity:1;" d="M 135.632812 72.605469 L 136.972656 75.605469 C 138.367188 79.289062 141.128906 83.285156 141.140625 87.230469 C 140.679688 92.878906 133.703125 95.769531 129.367188 92.097656 C 126.753906 89.394531 125.710938 85.039062 123.996094 81.726562 C 123.523438 80.644531 123.050781 79.550781 122.578125 78.46875 C 126.902344 76.464844 131.269531 74.535156 135.632812 72.605469 Z M 135.632812 72.605469 "/>
<g clip-path="url(#clip8)" clip-rule="nonzero">
<path style=" stroke:none;fill-rule:nonzero;fill:rgb(100%,0%,56.469727%);fill-opacity:1;" d="M 184.117188 77.0625 C 184.082031 98.28125 184.191406 119.542969 184.082031 140.738281 C 183.683594 153.570312 173.402344 164.3125 160.695312 165.605469 L 155.671875 165.605469 C 143.539062 164.164062 133.605469 154.265625 132.636719 141.996094 C 132.363281 132.136719 132.609375 122.242188 132.523438 112.382812 C 152.566406 105.550781 170.257812 92.992188 184.117188 77.0625 Z M 184.117188 77.0625 "/>
</g>
<g clip-path="url(#clip9)" clip-rule="nonzero">
<path style=" stroke:none;fill-rule:nonzero;fill:rgb(100%,100%,100%);fill-opacity:1;" d="M 58.863281 104.457031 C 82.410156 113.167969 108.988281 113.21875 132.535156 104.480469 C 132.523438 107.121094 132.523438 109.746094 132.523438 112.382812 C 132.609375 122.242188 132.363281 132.136719 132.636719 141.996094 C 133.605469 154.265625 143.539062 164.164062 155.671875 165.605469 L 35.3125 165.605469 C 48.070312 164.335938 58.351562 153.621094 58.773438 140.75 C 58.984375 128.652344 58.824219 116.542969 58.863281 104.457031 Z M 58.863281 104.457031 "/>
</g>
</g>
</svg>
